HIERARCHY
ROOT Hips
{
	OFFSET 0.00000 0.00000 0.00000
	CHANNELS 6 Xposition Yposition Zposition Zrotation Yrotation Xrotation 
	JOINT LHipJoint
	{
		OFFSET 0 0 0
		CHANNELS 3 Zrotation Yrotation Xrotation
		JOINT LeftUpLeg
		{
			OFFSET 1.53794 -1.55850 0.93568
			CHANNELS 3 Zrotation Yrotation Xrotation
			JOINT LeftLeg
			{
				OFFSET 2.28545 -6.27922 0.00000
				CHANNELS 3 Zrotation Yrotation Xrotation
				JOINT LeftFoot
				{
					OFFSET 2.37329 -6.52057 0.00000
					CHANNELS 3 Zrotation Yrotation Xrotation
					JOINT LeftToeBase
					{
						OFFSET 0.14846 -0.40788 2.09160
						CHANNELS 3 Zrotation Yrotation Xrotation
						End Site
						{
							OFFSET 0.00000 -0.00000 1.07536
						}
					}
				}
			}
		}
	}
	JOINT RHipJoint
	{
		OFFSET 0 0 0
		CHANNELS 3 Zrotation Yrotation Xrotation
		JOINT RightUpLeg
		{
			OFFSET -1.78290 -1.55850 0.93568
			CHANNELS 3 Zrotation Yrotation Xrotation
			JOINT RightLeg
			{
				OFFSET -2.24144 -6.15831 0.00000
				CHANNELS 3 Zrotation Yrotation Xrotation
				JOINT RightFoot
				{
					OFFSET -2.35091 -6.45907 0.00000
					CHANNELS 3 Zrotation Yrotation Xrotation
					JOINT RightToeBase
					{
						OFFSET -0.14428 -0.39641 2.07944
						CHANNELS 3 Zrotation Yrotation Xrotation
						End Site
						{
							OFFSET -0.00000 -0.00000 1.06864
						}
					}
				}
			}
		}
	}
	JOINT LowerBack
	{
		OFFSET 0 0 0
		CHANNELS 3 Zrotation Yrotation Xrotation
		JOINT Spine
		{
			OFFSET -0.08841 2.11430 -0.15818
			CHANNELS 3 Zrotation Yrotation Xrotation
			JOINT Spine1
			{
				OFFSET -0.00033 2.12605 -0.08097
				CHANNELS 3 Zrotation Yrotation Xrotation
				JOINT Neck
				{
					OFFSET 0 0 0
					CHANNELS 3 Zrotation Yrotation Xrotation
					JOINT Neck1
					{
						OFFSET 0.04431 1.59447 0.43193
						CHANNELS 3 Zrotation Yrotation Xrotation
						JOINT Head
						{
							OFFSET 0.00455 1.62017 -0.58852
							CHANNELS 3 Zrotation Yrotation Xrotation
							End Site
							{
								OFFSET -0.00920 1.72955 -0.25850
							}
						}
					}
				}
				JOINT LeftShoulder
				{
					OFFSET 0 0 0
					CHANNELS 3 Zrotation Yrotation Xrotation
					JOINT LeftArm
					{
						OFFSET 2.86490 1.49927 -0.33774
						CHANNELS 3 Zrotation Yrotation Xrotation
						JOINT LeftForeArm
						{
							OFFSET 4.87408 -0.00000 0.00000
							CHANNELS 3 Zrotation Yrotation Xrotation
							JOINT LeftHand
							{
								OFFSET 2.76729 -0.00000 0.00000
								CHANNELS 3 Zrotation Yrotation Xrotation
								JOINT LeftFingerBase
								{
									OFFSET 0 0 0
									CHANNELS 3 Zrotation Yrotation Xrotation
									JOINT LeftHandIndex1
									{
										OFFSET 0.98922 -0.00000 0.00000
										CHANNELS 3 Zrotation Yrotation Xrotation
										End Site
										{
											OFFSET 0.79753 -0.00000 0.00000
										}
									}
								}
								JOINT LThumb
								{
									OFFSET 0 0 0
									CHANNELS 3 Zrotation Yrotation Xrotation
									End Site
									{
										OFFSET 0.80972 -0.00000 0.80972
									}
								}
							}
						}
					}
				}
				JOINT RightShoulder
				{
					OFFSET 0 0 0
					CHANNELS 3 Zrotation Yrotation Xrotation
					JOINT RightArm
					{
						OFFSET -2.94414 1.45463 -0.25291
						CHANNELS 3 Zrotation Yrotation Xrotation
						JOINT RightForeArm
						{
							OFFSET -4.71404 -0.00000 0.00000
							CHANNELS 3 Zrotation Yrotation Xrotation
							JOINT RightHand
							{
								OFFSET -2.83468 -0.00000 0.00000
								CHANNELS 3 Zrotation Yrotation Xrotation
								JOINT RightFingerBase
								{
									OFFSET 0 0 0
									CHANNELS 3 Zrotation Yrotation Xrotation
									JOINT RightHandIndex1
									{
										OFFSET -0.86820 -0.00000 0.00000
										CHANNELS 3 Zrotation Yrotation Xrotation
										End Site
										{
											OFFSET -0.69996 -0.00000 0.00000
										}
									}
								}
								JOINT RThumb
								{
									OFFSET 0 0 0
									CHANNELS 3 Zrotation Yrotation Xrotation
									End Site
									{
										OFFSET -0.71065 -0.00000 0.71065
									}
								}
							}
						}
					}
				}
			}
		}
	}
}
MOTION
Frames: 6
Frame Time: 0.0384615
0.00 0.00 0.00 0 0 0 0 0 0 -21 0 0 0 0 0 0 0 0 0 0 0 0 0 0 21 0 0 0 0 0 0 0 0 0 0 0 0 0 0 0 0 0 0 0 0 0 0 -16 0 0 21 0 0 11 0 0 0 -8 0 0 0 0 0 0 0 0 0 0 0 0 0 0 0 0 0 0 0 0 8 0 0 0 0 0 0 0 0 0 0 0 0 0 0 0 0 0
0.00 0.00 0.00 -177.2520 -3.3304 -177.2300 0.0000 0.0000 0.0000 -17.6877 -14.3804 -29.6857 4.1929 12.4128 37.2085 -0.2960 14.9910 6.8317 0.0157 -0.8088 -2.2228 0.0000 0.0000 0.0000 26.9484 -3.1599 -9.8005 -11.2123 -18.0374 63.4691 1.1696 -22.2000 4.5789 -1.7469 8.3176 -23.6830 -1.3029 2.3549 0.1666 -0.0612 3.0904 2.7118 0.7281 1.4829 2.6227 -1.1626 -0.5237 -30.9055 2.3614 -5.1577 42.2475 -0.4077 -2.6888 24.1370 0.0000 0.0000 0.0000 -69.5387 33.0434 47.9334 94.5048 -59.9232 -63.9003 -0.0000 -0.0000 21.2777 16.2139 1.0452 0.3039 -7.1250 0.0000 -0.0000 -8.2335 31.0066 2.8416 0.0000 0.0000 0.0000 81.8815 -17.8681 45.7734 -81.3441 59.7150 -52.5109 0.0000 0.0000 11.4635 -11.3850 -1.1596 0.2335 7.1250 -0.0000 -0.0000 12.0473 -31.0256 4.1967
0.00 0.00 0.00 -181.0570 -3.0664 -179.5460 0.0000 0.0000 0.0000 -23.4969 -12.8688 -24.3120 5.4935 13.9189 42.9136 -1.4077 20.6696 -4.5377 0.0160 0.8160 2.2428 0.0000 0.0000 0.0000 20.1978 -0.3745 -19.4666 -17.4702 -19.8459 82.5852 1.1526 -19.6136 -0.6355 -1.8544 8.5561 -24.4162 -5.0539 1.6152 3.3298 -1.1505 1.8326 4.0186 1.6119 0.6926 2.1477 -1.5013 -0.0925 -30.4855 3.8700 -5.2370 42.1413 0.4755 -2.6307 24.0342 0.0000 0.0000 0.0000 -71.0020 25.9472 48.8751 85.4872 -59.9229 -56.0928 -0.0000 -0.0000 22.3065 17.3778 3.1398 0.9820 -7.1250 0.0000 -0.0000 -7.5097 33.2023 2.1875 0.0000 0.0000 0.0000 83.9601 -17.7257 40.6308 -69.8337 58.4062 -42.6290 0.0000 0.0000 13.8801 -13.3911 -3.3728 0.8024 7.1250 -0.0000 -0.0000 10.7523 -33.3049 3.1295
0.00 0.00 0.00 -181.4550 -3.2519 -179.5590 0.0000 0.0000 0.0000 -25.6138 -8.9197 -12.6593 5.4410 13.8638 42.6946 -2.1463 25.2318 -14.5375 0.0007 -0.1758 -0.4829 0.0000 0.0000 0.0000 12.9678 13.7662 -42.1579 -13.5940 -18.9862 70.9605 1.5703 -21.5990 -6.2315 -1.3682 7.4029 -20.9145 -3.9540 -1.0477 8.5343 -0.9787 -2.3128 6.3298 1.3477 -1.5511 1.8858 3.3123 -1.6890 -29.7396 -0.4270 -0.1209 43.3914 -0.3688 1.7187 24.4985 -0.0000 0.0000 0.0000 -73.2441 10.5257 51.9950 79.4595 -59.5760 -50.8847 -0.0000 -0.0000 22.7889 17.4673 2.4775 0.7793 -7.1250 0.0000 -0.0000 -7.3714 32.5170 2.2695 -0.0000 0.0000 0.0000 83.9541 -13.9982 26.6187 -38.0404 46.8651 -16.9950 0.0000 0.0000 14.6902 -12.1179 -5.0137 1.0750 7.1250 -0.0000 -0.0000 12.0294 -34.8998 3.0393
0.00 0.00 0.00 -182.1450 -3.4712 -177.1580 0.0000 0.0000 0.0000 -26.6558 -9.4189 -7.5130 3.9387 12.0783 36.0096 -2.4183 26.3517 -12.8585 0.0023 -0.3122 -0.8578 0.0000 0.0000 0.0000 10.1194 15.5867 -44.7540 -8.0582 -16.1619 52.7719 1.7902 -25.1206 1.7134 -1.1127 6.7016 -18.8344 -5.9382 -1.4956 7.5631 0.4451 -2.9428 6.3500 3.9199 -1.9672 2.6736 2.9668 -1.4680 -29.2516 -1.4826 1.3261 43.7618 -0.4820 2.0420 24.7514 0.0000 -0.0000 0.0000 -75.3467 6.6511 53.1419 77.4058 -59.3921 -49.1154 -0.0000 -0.0000 23.5332 16.2401 1.6351 0.4762 -7.1250 0.0000 -0.0000 -8.2696 31.6151 2.7322 0.0000 -0.0000 0.0000 81.1601 -12.1020 22.6843 -30.4930 41.3123 -11.7338 0.0000 0.0000 14.7355 -10.9358 -5.8539 1.1290 7.1250 -0.0000 -0.0000 13.1392 -35.6763 3.0771
0.00 0.00 0.00 -182.9240 -4.5654 -174.8940 0.0000 0.0000 0.0000 -26.7085 -6.6930 -2.0838 2.4108 9.6738 27.9268 -1.9746 23.9595 -10.5262 0.0420 -1.3230 -3.6380 0.0000 0.0000 0.0000 7.3338 16.4716 -44.0604 -3.1891 -10.9950 32.2631 0.5485 -24.7804 13.5935 -0.9827 6.3099 -17.6864 -6.8935 -1.8987 6.8704 1.3531 -3.4994 6.5369 5.3803 -2.3394 3.4543 2.7328 -1.4755 -28.9940 -2.0251 2.0578 44.1181 -0.5261 2.2165 25.0709 -0.0000 -0.0000 0.0000 -76.4213 2.4609 53.7594 72.0552 -58.7476 -44.5247 -0.0000 -0.0000 26.7507 12.6660 1.3780 0.3096 -7.1250 0.0000 -0.0000 -11.0690 31.2735 3.7768 -0.0000 -0.0000 0.0000 79.6525 -10.0722 16.5141 -22.8088 33.8790 -7.0314 0.0000 0.0000 17.9253 -8.9613 -5.5561 0.8747 7.1250 -0.0000 -0.0000 14.6908 -35.2789 3.6066
